<svg width="501" height="553" viewBox="0 0 501 553" fill="none" xmlns="http://www.w3.org/2000/svg">
<g clip-path="url(#clip0_265_4802)">
<path id="humo1" d="M230.982 55.3908C230.982 52.8883 228.977 50.7626 226.171 49.9621C226.043 47.0829 224.206 44.6544 221.636 43.6722C222.894 42.3739 223.722 40.1271 223.722 37.5708C223.722 33.5547 221.676 30.2921 219.153 30.2921C217.544 30.2921 216.125 31.624 215.317 33.6287C214.752 33.1712 214.139 32.8349 213.493 32.6264C212.08 30.5006 209.671 29.0946 206.926 29.0946C202.579 29.0946 199.053 32.6196 199.053 36.9653C199.053 40.6652 201.61 43.7597 205.055 44.6006C205.122 45.3876 205.244 46.1478 205.412 46.8676C204.961 47.0358 204.557 47.2847 204.207 47.6008C203.662 47.0089 202.888 46.6321 202.02 46.6321C200.378 46.6321 199.053 47.9641 199.053 49.5988C199.053 51.2335 200.385 52.5654 202.02 52.5654C202.565 52.5654 203.077 52.4174 203.514 52.1618C203.514 52.1618 203.514 52.1685 203.521 52.1753C202.586 53.4332 202.02 55.0545 202.02 56.8237C202.02 60.8128 204.88 64.0486 208.413 64.0486C210.264 64.0486 211.926 63.1539 213.096 61.7345C214.489 64.2167 217.147 65.8985 220.202 65.8985C223.91 65.8985 227.039 63.4162 228.022 60.0258C229.818 58.9763 230.989 57.2878 230.989 55.3774L230.982 55.3908Z" fill="white" stroke="#00402A" stroke-linecap="round" stroke-linejoin="round"/>
</g>
<defs>
<clipPath id="clip0_265_4802">
<rect width="501" height="553" fill="white"/>
</clipPath>
</defs>
</svg>
